<svg xmlns="http://www.w3.org/2000/svg" viewBox="0 0 1900 768.57"><defs><style>.cls-1{fill:#d04a5d;}</style></defs><g id="Layer_2" data-name="Layer 2"><g id="Layer_1-2" data-name="Layer 1"><polygon class="cls-1" points="1877.78 369.71 1877.78 300 1852.38 287.3 1833.33 319.05 1820.63 442.86 1749.21 442.86 1749.21 406.14 1707.94 398.41 1588.89 600 1490.48 600 1490.48 565.08 1449.21 538.1 1419.44 643.5 1351.83 674.49 1293.1 611 1250.24 611 1180.4 695.13 799.44 720.52 615.24 642.88 556.35 501.59 484.13 504.76 466.67 541.27 385.71 433.33 344.44 280.95 269.84 238.09 192.06 0 158.73 0 139.68 60.84 85.71 92.06 61.91 258.73 0 314.29 0 768.57 1900 768.57 1900 369.71 1877.78 369.71"/></g></g></svg>